#!OML:ASF H:\Pregnant\Project 1\Capture day 1\Session 1\femalepreg.ASF
:FULLY-SPECIFIED
:DEGREES
815
root -3.79016 6.96932 26.5842 60.0293 -15.0097 351.739
lowerback 27.4815 3.55072 -12.1945
upperback 4.62396 1.11851 1.38442
thorax -9.62444 0.846934 7.6851
lowerneck -27.6886 -8.4756 -3.48095
upperneck 1.27807 -14.0539 29.6051
head 7.88231 -4.87498 8.406
rclavicle 1.74931e-014 -1.11319e-014
rhumerus 29.0069 36.0583 -77.2956
rradius 47.1096
rwrist 10.3438
rhand -66.2942 230.564
rfingers 7.12502
rthumb -38.1208 616.33
lclavicle 1.74931e-014 -1.11319e-014
lhumerus 6.59879 22.488 53.0713
lradius 51.0632
lwrist 40.822
lhand -55.5092 -26.5416
lfingers 7.12502
lthumb -27.8671 -358.589
rfemur -87.1186 -26.1226 37.4334
rtibia 136.497
rfoot -8.02508 28.5008
rtoes 14.8596
lfemur -108.734 19.479 4.15214
ltibia 145.079
lfoot 28.1596 -54.6657
ltoes 18.5483
816
root -3.83652 6.99307 26.5892 59.7398 -15.1392 351.808
lowerback 27.9957 3.64824 -12.3289
upperback 4.67261 1.14189 1.46787
thorax -9.80413 0.867859 7.82711
lowerneck -27.7889 -8.46523 -3.53823
upperneck 1.19402 -13.997 29.5687
head 7.86018 -4.85234 8.41191
rclavicle 1.43125e-014 3.47873e-014
rhumerus 29.3159 36.4636 -77.1397
rradius 47.0657
rwrist 10.3976
rhand -66.2511 231.1
rfingers 7.12502
rthumb -38.0802 616.878
lclavicle 1.43125e-014 3.47873e-014
lhumerus 6.0807 22.3393 53.8368
lradius 53.7865
lwrist 39.7999
lhand -55.6179 -28.3528
lfingers 7.12502
lthumb -27.971 -360.417
rfemur -86.4966 -25.4845 37.3352
rtibia 136.206
rfoot -7.82908 28.257
rtoes 15.3013
lfemur -107.756 19.0567 4.62789
ltibia 144.634
lfoot 27.9647 -54.4066
ltoes 19.011
817
root -3.88216 7.01619 26.5939 59.4502 -15.2755 351.871
lowerback 28.5007 3.74811 -12.4682
upperback 4.7188 1.16647 1.55114
thorax -9.98069 0.889508 7.97118
lowerneck -27.8806 -8.45605 -3.60759
upperneck 1.09971 -13.9377 29.5519
head 7.83646 -4.82934 8.42747
rclavicle -5.08889e-014 8.74653e-015
rhumerus 29.6101 36.868 -76.9946
rradius 47.0273
rwrist 10.4589
rhand -66.2117 231.67
rfingers 7.12502
rthumb -38.0429 617.458
lclavicle -5.08889e-014 8.74653e-015
lhumerus 5.59203 22.1423 54.6441
lradius 56.5122
lwrist 38.6209
lhand -55.701 -29.9477
lfingers 7.12502
lthumb -28.0504 -362.025
rfemur -85.8703 -24.8703 37.2591
rtibia 135.918
rfoot -7.63231 27.995
rtoes 15.7876
lfemur -106.791 18.6399 5.0813
ltibia 144.196
lfoot 27.755 -54.1529
ltoes 19.4549
818
root -3.9269 7.03801 26.5975 59.1792 -15.4182 351.931
lowerback 28.9725 3.84602 -12.6096
upperback 4.75919 1.19079 1.63278
thorax -10.1473 0.911027 8.11529
lowerneck -27.9675 -8.449 -3.68743
upperneck 1.00431 -13.8795 29.5487
head 7.81438 -4.80655 8.44971
rclavicle -7.95139e-015 8.54774e-015
rhumerus 29.8893 37.272 -76.8608
rradius 46.9912
rwrist 10.5256
rhand -66.1755 232.264
rfingers 7.12502
rthumb -38.0087 618.061
lclavicle -7.95139e-015 8.54774e-015
lhumerus 5.13501 21.8856 55.4886
lradius 59.2234
lwrist 37.3417
lhand -55.7559 -31.353
lfingers 7.12502
lthumb -28.1029 -363.439
rfemur -85.2722 -24.2686 37.2106
rtibia 135.641
rfoot -7.43292 27.7216
rtoes 16.2982
lfemur -105.875 18.2701 5.501
ltibia 143.775
lfoot 27.5524 -53.9253
ltoes 19.8801
819
root -3.97052 7.05793 26.5997 58.9443 -15.5672 351.985
lowerback 29.3883 3.93757 -12.7501
upperback 4.79076 1.21342 1.71139
thorax -10.2976 0.931581 8.25749
lowerneck -28.0533 -8.44504 -3.77639
upperneck 0.916382 -13.8254 29.5525
head 7.79689 -4.78455 8.47556
rclavicle -3.18055e-015 7.35503e-015
rhumerus 30.153 37.6758 -76.7383
rradius 46.9537
rwrist 10.5962
rhand -66.1417 232.878
rfingers 7.12502
rthumb -37.9769 618.684
lclavicle -3.18055e-015 7.35503e-015
lhumerus 4.71173 21.5574 56.3656
lradius 61.9018
lwrist 36.0106
lhand -55.7816 -32.6007
lfingers 7.12502
lthumb -28.1275 -364.69
rfemur -84.734 -23.6687 37.1923
rtibia 135.382
rfoot -7.2317 27.4459
rtoes 16.8117
lfemur -105.045 17.9853 5.87775
ltibia 143.381
lfoot 27.3767 -53.7418
ltoes 20.2871
820
root -4.01282 7.07546 26.5999 58.7602 -15.7234 352.037
lowerback 29.7289 4.01911 -12.8875
upperback 4.81124 1.2333 1.78574
thorax -10.4264 0.95055 8.39627
lowerneck -28.1407 -8.44471 -3.87366
upperneck 0.841298 -13.7769 29.5571
head 7.78548 -4.76356 8.50244
rclavicle -2.8625e-014 2.10712e-014
rhumerus 30.4011 38.0787 -76.6267
rradius 46.9119
rwrist 10.669
rhand -66.109 233.5
rfingers 7.12502
rthumb -37.946 619.314
lclavicle -2.8625e-014 2.10712e-014
lhumerus 4.32435 21.1475 57.2711
lradius 64.5279
lwrist 34.6646
lhand -55.7766 -33.7274
lfingers 7.12502
lthumb -28.1228 -365.816
rfemur -84.2823 -23.0622 37.2023
rtibia 135.151
rfoot -7.03249 27.1788
rtoes 17.3045
lfemur -104.326 17.8143 6.20487
ltibia 143.02
lfoot 27.2421 -53.615
ltoes 20.6751
821
root -4.05359 7.09031 26.5979 58.6368 -15.8877 352.085
lowerback 29.9808 4.08824 -13.0204
upperback 4.81936 1.25013 1.85517
thorax -10.5301 0.967674 8.53065
lowerneck -28.2316 -8.44816 -3.97827
upperneck 0.781956 -13.7341 29.5562
head 7.7805 -4.74359 8.52792
rclavicle -2.38542e-014 5.56597e-015
rhumerus 30.6334 38.4794 -76.5245
rradius 46.8634
rwrist 10.7426
rhand -66.0766 234.121
rfingers 7.12502
rthumb -37.9154 619.944
lclavicle -2.38542e-014 5.56597e-015
lhumerus 3.97531 20.6474 58.2022
lradius 67.0816
lwrist 33.3303
lhand -55.7382 -34.7691
lfingers 7.12502
lthumb -28.086 -366.852
rfemur -83.935 -22.4423 37.2352
rtibia 134.953
rfoot -6.84034 26.9313
rtoes 17.7574
lfemur -103.736 17.7758 6.47866
ltibia 142.697
lfoot 27.1573 -53.5525
ltoes 21.0434
822
root -4.0927 7.10236 26.5936 58.5788 -16.0619 352.13
lowerback 30.1369 4.14421 -13.1488
upperback 4.81478 1.26437 1.91934
thorax -10.6067 0.983107 8.66033
lowerneck -28.327 -8.45528 -4.08918
upperneck 0.738713 -13.6965 29.5444
head 7.78127 -4.72449 8.5499
rclavicle 0 -7.95139e-015
rhumerus 30.8491 38.8759 -76.43
rradius 46.8076
rwrist 10.816
rhand -66.044 234.734
rfingers 7.12502
rthumb -37.8845 620.565
lclavicle 0 -7.95139e-015
lhumerus 3.66772 20.0516 59.1568
lradius 69.5425
lwrist 32.0252
lhand -55.6618 -35.755
lfingers 7.12502
lthumb -28.013 -367.826
rfemur -83.7018 -21.8053 37.282
rtibia 134.791
rfoot -6.66051 26.7144
rtoes 18.1536
lfemur -103.28 17.876 6.69705
ltibia 142.415
lfoot 27.1231 -53.5553
ltoes 21.3904
823
root -4.13006 7.11162 26.587 58.5866 -16.2481 352.174
lowerback 30.1955 4.18756 -13.2736
upperback 4.79777 1.27712 1.97844
thorax -10.6559 0.997333 8.78569
lowerneck -28.4275 -8.46582 -4.2052
upperneck 0.711069 -13.6631 29.5165
head 7.78676 -4.7061 8.56645
rclavicle 7.95139e-015 1.63003e-014
rhumerus 31.0477 39.2665 -76.3406
rradius 46.7445
rwrist 10.8882
rhand -66.0117 235.336
rfingers 7.12502
rthumb -37.854 621.175
lclavicle 7.95139e-015 1.63003e-014
lhumerus 3.40453 19.3583 60.1337
lradius 71.8911
lwrist 30.759
lhand -55.5418 -36.7054
lfingers 7.12502
lthumb -27.8982 -368.757
rfemur -83.5848 -21.1486 37.3322
rtibia 134.67
rfoot -6.4965 26.5377
rtoes 18.4817
lfemur -102.955 18.1129 6.85938
ltibia 142.174
lfoot 27.1361 -53.6209
ltoes 21.7149
824
root -4.16563 7.11825 26.5782 58.6574 -16.4485 352.215
lowerback 30.1593 4.2199 -13.3962
upperback 4.76904 1.28998 2.03311
thorax -10.6785 1.01111 8.90753
lowerneck -28.5342 -8.4795 -4.32449
upperneck 0.698563 -13.633 29.4675
head 7.79597 -4.68835 8.57548
rclavicle -3.18055e-015 4.1546e-014
rhumerus 31.2282 39.6495 -76.2542
rradius 46.6749
rwrist 10.9583
rhand -65.9807 235.923
rfingers 7.12502
rthumb -37.8247 621.77
lclavicle -3.18055e-015 4.1546e-014
lhumerus 3.18849 18.5693 61.1321
lradius 74.1095
lwrist 29.535
lhand -55.3733 -37.6266
lfingers 7.12502
lthumb -27.7372 -369.653
rfemur -83.5799 -20.4705 37.3754
rtibia 134.588
rfoot -6.34888 26.4085
rtoes 18.7338
lfemur -102.753 18.4784 6.96603
ltibia 141.971
lfoot 27.1894 -53.7444
ltoes 22.0161
825
root -4.19944 7.12248 26.5675 58.7854 -16.6646 352.253
lowerback 30.0348 4.24346 -13.5182
upperback 4.72947 1.30473 2.08431
thorax -10.6766 1.02532 9.02695
lowerneck -28.6472 -8.49616 -4.44562
upperneck 0.70038 -13.6057 29.3937
head 7.808 -4.67125 8.57555
rclavicle 2.38542e-014 -1.96797e-014
rhumerus 31.3895 40.0238 -76.1697
rradius 46.5995
rwrist 11.0262
rhand -65.9521 236.492
rfingers 7.12502
rthumb -37.7977 622.346
lclavicle 2.38542e-014 -1.96797e-014
lhumerus 3.02154 17.6898 62.1511
lradius 76.1822
lwrist 28.3513
lhand -55.1553 -38.5154
lfingers 7.12502
lthumb -27.5287 -370.508
rfemur -83.6783 -19.7702 37.4017
rtibia 134.545
rfoot -6.21577 26.3322
rtoes 18.9057
lfemur -102.66 18.9604 7.01876
ltibia 141.804
lfoot 27.2743 -53.9189
ltoes 22.2936
826
root -4.23154 7.12462 26.5552 58.9614 -16.8975 352.287
lowerback 29.833 4.2612 -13.6412
upperback 4.68033 1.32335 2.13346
thorax -10.6537 1.04098 9.14537
lowerneck -28.7662 -8.5154 -4.56745
upperneck 0.714766 -13.5801 29.2929
head 7.82159 -4.65472 8.56575
rclavicle 0 1.98785e-015
rhumerus 31.5306 40.3881 -76.0872
rradius 46.5182
rwrist 11.0925
rhand -65.9266 237.038
rfingers 7.12502
rthumb -37.7737 622.898
lclavicle 0 1.98785e-015
lhumerus 2.90456 16.7282 63.1896
lradius 78.0965
lwrist 27.2026
lhand -54.8901 -39.3668
lfingers 7.12502
lthumb -27.275 -371.319
rfemur -83.8654 -19.0489 37.4025
rtibia 134.535
rfoot -6.09392 26.3121
rtoes 18.9943
lfemur -102.657 19.5428 7.02114
ltibia 141.668
lfoot 27.3793 -54.1374
ltoes 22.5466
827
root -4.26208 7.12507 26.5416 59.1727 -17.147 352.315
lowerback 29.5697 4.27669 -13.7666
upperback 4.6233 1.34803 2.18254
thorax -10.6149 1.05927 9.2645
lowerneck -28.8894 -8.5368 -4.68966
upperneck 0.738811 -13.5547 29.1646
head 7.83519 -4.63858 8.54606
rclavicle 3.97569e-014 3.33958e-014
rhumerus 31.6511 40.7418 -76.0079
rradius 46.4298
rwrist 11.1588
rhand -65.9045 237.55
rfingers 7.12502
rthumb -37.7527 623.416
lclavicle 3.97569e-014 3.33958e-014
lhumerus 2.83748 15.6948 64.246
lradius 79.8426
lwrist 26.081
lhand -54.5842 -40.1795
lfingers 7.12502
lthumb -26.9824 -372.086
rfemur -84.1197 -18.3101 37.3704
rtibia 134.551
rfoot -5.97972 26.3498
rtoes 18.9981
lfemur -102.718 20.2052 6.98017
ltibia 141.558
lfoot 27.4924 -54.3911
ltoes 22.7771
828
root -4.29128 7.12431 26.5271 59.4037 -17.4125 352.337
lowerback 29.2645 4.29397 -13.8953
upperback 4.56064 1.38102 2.23357
thorax -10.5662 1.08143 9.38586
lowerneck -29.0142 -8.55966 -4.81234
upperneck 0.768132 -13.5275 29.0098
head 7.84672 -4.62253 8.51721
rclavicle 9.54166e-015 3.71727e-014
rhumerus 31.751 41.0833 -75.9343
rradius 46.3319
rwrist 11.2278
rhand -65.8853 238.018
rfingers 7.12502
rthumb -37.7346 623.889
lclavicle 9.54166e-015 3.71727e-014
lhumerus 2.8196 14.6009 65.3178
lradius 81.414
lwrist 24.9772
lhand -54.2454 -40.9598
lfingers 7.12502
lthumb -26.6582 -372.817
rfemur -84.4154 -17.5597 37.2989
rtibia 134.586
rfoot -5.87115 26.4459
rtoes 18.9149
lfemur -102.814 20.9235 6.90543
ltibia 141.465
lfoot 27.599 -54.6704
ltoes 22.9863
